<svg xmlns="http://www.w3.org/2000/svg" viewBox="0 0 30 30"><title>iconwed</title><g id="Layer_2" data-name="Layer 2"><rect width="30" height="30" rx="5.7" style="fill:#fcc5ac"/></g><g id="Layer_1" data-name="Layer 1"><g id="Backdrop"><path d="M14.8,4.9h1.8a6.6,6.6,0,0,1,6.6,6.6V23.9a0,0,0,0,1,0,0H8.1a0,0,0,0,1,0,0V11.5A6.6,6.6,0,0,1,14.8,4.9Z" style="fill:#f97794"/><path d="M14.5,23.5a.4.4,0,0,0-.4.4h6.6a.4.4,0,0,0-.4-.4h-.2v-.9a.6.6,0,0,0,.1-.4h0c0,.1-.1.2-.1.3L19.6,20c.1-.1.1-.2.1-.4h0c0,.1-.1.2-.1.3l-.3-1.6a1.7,1.7,0,0,0-.6-1.2,1.3,1.3,0,0,0,.1-.6h0l.8-.4h.1c.2,0,.3-.2.2-.4v-.2L19.1,14H19a.8.8,0,0,0-.8-.6h-.5v-.2h.2a.7.7,0,0,0,.6.2.9.9,0,0,0,.9-.9.9.9,0,0,0-.6-.9V11a.9.9,0,0,0-.3-.6h.1a.4.4,0,0,0,.1-.3h-.5v-.2a.4.4,0,0,0-.1-.3.4.4,0,0,0-.1.3v.2H18a1.4,1.4,0,0,0-1.3-.3,1.1,1.1,0,0,0-.9,1.2h.1a.5.5,0,0,0,.3.5h.1a1,1,0,0,0,.6,1h-.4a1.8,1.8,0,0,0-.7.5L13.6,13h-.5v-.2c.2-.1.3-.3.4-.4h.1a.3.3,0,0,0,.3-.3c.1,0,0-.1,0-.1l.2-.3c0-.1-.1-.2-.1-.3a.8.8,0,0,0,.2-.5.6.6,0,0,0-.6-.7h-.1a1.3,1.3,0,0,0-1.2-.9c-.7,0-1.3.3-1.3.9v.3a.7.7,0,0,1-.1-.6.4.4,0,0,1,.1-.3.5.5,0,0,0-.3.5c-.1.4.2.7.6.9a.4.4,0,0,0-.1.3l.2.4h0a1.2,1.2,0,0,0,.9,1.2h0l-.5.2-1.8.7L8.9,12.3a.1.1,0,0,0-.1-.1L9,12v-.2a.1.1,0,0,0,0-.2H8.7v-.5l-.4-.2c0,.4-.1.9-.1,1.3V13l1.4,1.7h.6l.9-.3v1.3a1.2,1.2,0,0,0,.2,1,1.4,1.4,0,0,0-.2.6h0l.2,6.4h.8l.2-5.1h.4v5.1h.8l.2-6.4h0a.6.6,0,0,0-.1-.4,1.1,1.1,0,0,0,.4-.9v-1h.3l1,.7h.2a.4.4,0,0,0,.5,0v-.4l.2,1.1a2.3,2.3,0,0,0-1,1.5l-.2,1.6a.4.4,0,0,1-.1-.3h0c0,.2,0,.3.1.4l-.4,2.5a.4.4,0,0,1-.1-.3h0c0,.2,0,.3.1.4v.8Zm.9-8.4-.8-.4h.1l.7.3Z" style="fill:#f46285"/><ellipse cx="15.6" cy="6.9" rx="1.7" ry="3.7" transform="matrix(0.02, -1, 1, 0.02, 8.29, 22.36)" style="fill:#b3315f"/><path d="M15.6,7.8A4.7,4.7,0,0,1,13,7a3.6,3.6,0,0,0,2.6,1.1,3.9,3.9,0,0,0,2.5-1A3.7,3.7,0,0,1,15.6,7.8Z" style="fill:#f97794"/><ellipse cx="20.4" cy="9.5" rx="1.2" ry="3.2" transform="translate(-1.9 12.4) rotate(-32.4)" style="fill:#b3315f"/><ellipse cx="22.7" cy="14.8" rx="0.9" ry="2.4" transform="translate(-2.3 4.3) rotate(-10.2)" style="fill:#b3315f"/><circle cx="22.2" cy="12.4" r="0.6" style="fill:#b3315f"/><path d="M21.7,12.6a.6.6,0,0,1,.6-.6.5.5,0,0,1,.5.3.6.6,0,0,0-.6-.5.6.6,0,0,0-.6.6v.3Z" style="fill:#f97794"/><path d="M22.8,12.3a.6.6,0,0,1-.6.6.5.5,0,0,1-.5-.3.6.6,0,0,0,.6.5.6.6,0,0,0,.6-.6c0-.1-.1-.2-.1-.3Z" style="fill:#f97794"/><ellipse cx="10.4" cy="9.5" rx="3.2" ry="1.2" transform="translate(-3.2 13.2) rotate(-57.6)" style="fill:#b3315f"/><ellipse cx="8.1" cy="14.8" rx="2.4" ry="0.9" transform="translate(-7.9 20.2) rotate(-79.8)" style="fill:#b3315f"/><circle cx="8.6" cy="12.4" r="0.6" style="fill:#b3315f"/><path d="M9.2,12.6a.7.7,0,0,0-.7-.6.5.5,0,0,0-.5.3.6.6,0,0,1,.6-.5.6.6,0,0,1,.6.6.4.4,0,0,1-.1.3Z" style="fill:#f97794"/><path d="M8,12.3a.7.7,0,0,0,.7.6.5.5,0,0,0,.5-.3.6.6,0,0,1-.6.5.6.6,0,0,1-.6-.6.4.4,0,0,1,.1-.3Z" style="fill:#f97794"/></g><g id="Ground"><ellipse cx="6.9" cy="21" rx="0.7" ry="2.1" transform="translate(-1.7 0.6) rotate(-4.6)" style="fill:#513162"/><path d="M5.7,23l-.5-.3a1.3,1.3,0,0,0,.1.6H4.7l.4.5-.5.2.7.2a.9.9,0,0,0,.7-.3.8.8,0,0,0,.1-.7.9.9,0,0,0-.3-.7A1.3,1.3,0,0,0,5.7,23Z" style="fill:#513162"/><path d="M8.5,22.1v-.6a.8.8,0,0,0-.4.4c-.1-.2-.1-.4-.2-.5s-.2.3-.3.5a.8.8,0,0,0-.4-.4,2.2,2.2,0,0,0,.1.8,1,1,0,0,0,.6.5l.7-.2c.2-.2.4-.4.4-.6Z" style="fill:#9452a5"/><path d="M7,22.9c0-1.2-.3-3.5-.3-3.6h.1c0,.1.2,2.4.2,3.6Z" style="fill:#9452a5"/><ellipse cx="5.3" cy="21.5" rx="0.8" ry="2.6" transform="translate(-13 9.1) rotate(-41.9)" style="fill:#9452a5"/><path d="M7,23.3A15.4,15.4,0,0,1,3.9,20H4a11.9,11.9,0,0,0,3,3.3Z" style="fill:#513162"/><path d="M8,22.3a1.3,1.3,0,0,0-1.1.5H6.8a.9.9,0,1,0,0,1.8,1.2,1.2,0,0,0,.8-.4H8a1.1,1.1,0,0,0,1.2-1C9.2,22.7,8.7,22.3,8,22.3Z" style="fill:#fff"/><path d="M8.3,22.7a1.3,1.3,0,0,0-1.1.5H7.1a.9.9,0,0,0-1,.9v.2a.9.9,0,0,0,.7.3,1.2,1.2,0,0,0,.8-.4H8a1.1,1.1,0,0,0,1.2-1,.4.4,0,0,0-.1-.3A1.1,1.1,0,0,0,8.3,22.7Z" style="fill:#f2f2f2"/><circle cx="4.7" cy="22.2" r="0.3" style="fill:#e2b0ff"/><circle cx="5.7" cy="19.5" r="0.3" style="fill:#e2b0ff"/><circle cx="8.3" cy="20.7" r="0.3" style="fill:#e2b0ff"/><ellipse cx="23.2" cy="21" rx="2.1" ry="0.7" transform="translate(0.4 42.4) rotate(-85.4)" style="fill:#513162"/><path d="M24.4,23l.5-.3a1.4,1.4,0,0,1-.2.6h.6l-.4.5.6.2-.8.2a.9.9,0,0,1-.7-.3,1.5,1.5,0,0,1-.1-.7,1,1,0,0,1,.4-.7C24.3,22.6,24.4,22.8,24.4,23Z" style="fill:#513162"/><path d="M21.6,22.1a1.3,1.3,0,0,1-.1-.6l.5.4a.8.8,0,0,1,.2-.5.8.8,0,0,1,.2.5l.4-.4a1.1,1.1,0,0,1-.1.8,1.2,1.2,0,0,1-.5.5l-.7-.2A1.3,1.3,0,0,1,21,22Z" style="fill:#9452a5"/><path d="M23,22.9h0c0-1.2.3-3.5.3-3.6h0Z" style="fill:#9452a5"/><ellipse cx="24.7" cy="21.5" rx="2.6" ry="0.8" transform="translate(-7.8 25.5) rotate(-48.1)" style="fill:#9452a5"/><path d="M23.1,23.3h0a13.9,13.9,0,0,0,3-3.3h0A13.9,13.9,0,0,1,23.1,23.3Z" style="fill:#513162"/><path d="M22,22.3a1.3,1.3,0,0,1,1.1.5h.1a.9.9,0,1,1,0,1.8,1.2,1.2,0,0,1-.8-.4H22a1.1,1.1,0,0,1-1.1-1A1,1,0,0,1,22,22.3Z" style="fill:#fff"/><path d="M21.7,22.7a1.3,1.3,0,0,1,1.1.5h.1a1,1,0,0,1,1.1.9c0,.1,0,.2-.1.2a.8.8,0,0,1-.7.3,1.2,1.2,0,0,1-.8-.4H22a1.1,1.1,0,0,1-1.1-1V23A1.1,1.1,0,0,1,21.7,22.7Z" style="fill:#f2f2f2"/><circle cx="25.4" cy="22.2" r="0.3" style="fill:#e2b0ff"/><circle cx="24.4" cy="19.5" r="0.3" style="fill:#e2b0ff"/><circle cx="21.7" cy="20.7" r="0.3" style="fill:#e2b0ff"/><ellipse cx="15.1" cy="24.3" rx="10.2" ry="0.8" style="fill:#b3315f"/></g><g id="Bride_and_Groom" data-name="Bride and Groom"><rect x="7.7" y="13" width="3.7" height="1.23" rx="0.5" transform="translate(-4.2 4.3) rotate(-20.7)" style="fill:#360940"/><rect x="6" y="12.7" width="3.3" height="1.08" rx="0.5" transform="translate(2.1 27.4) rotate(-128.6)" style="fill:#513162"/><circle cx="6.7" cy="12.1" r="0.5" style="fill:#fff"/><circle cx="6.7" cy="11.8" r="0.5" style="fill:#feb692"/><path d="M6.2,11.7v-.4H6c-.1-.1-.1-.2,0-.2l.4-.2h.3L7,11l.2.2v.3h.3c.1,0,.1.1.1.2h0v.2l-.4.4Z" style="fill:#feb692"/><path d="M6.5,11.9a.5.5,0,0,1,.5-.3.4.4,0,0,0-.5.1.4.4,0,0,0-.1.3Z" style="fill:#ff9d6c"/><rect x="11.3" y="13.1" width="3.7" height="1.23" rx="0.5" transform="translate(20.5 31.2) rotate(-159.3)" style="fill:#360940"/><rect x="13.8" y="14.1" width="3.3" height="1.08" rx="0.5" transform="translate(6.9 -4.8) rotate(22.9)" style="fill:#513162"/><circle cx="16.8" cy="15.2" r="0.5" style="fill:#fff"/><circle cx="17" cy="15.2" r="0.5" style="fill:#feb692"/><path d="M17.3,15.6h.5c.1.1.2,0,.2-.1v-.7l-.3-.3h-.6l-.2.2-.2.4Z" style="fill:#feb692"/><path d="M17,15.4a.7.7,0,0,0,.2-.6.5.5,0,0,1-.1.6H17Z" style="fill:#ff9d6c"/><polygon points="10.6 17.3 9.4 17.3 9.6 24.1 10.4 24.1 10.6 17.3" style="fill:#360940"/><polygon points="12.2 17.3 10.9 17.3 11.2 24.1 12 24.1 12.2 17.3" style="fill:#360940"/><circle cx="10.8" cy="17.3" r="1.4" style="fill:#360940"/><rect x="9.4" y="12.4" width="3.1" height="4.92" rx="1.4" transform="translate(1.5 -1) rotate(5.5)" style="fill:#513162"/><path d="M12.2,14.1c.1-1.7-1-1.6-1-1.6s-1-.3-1.3,1.4l.3.3-.3.8.9,1.2,1.2-1v-.8Z" style="fill:#63407a"/><rect x="10.4" y="12.4" width="1.3" height="4.38" rx="0.6" transform="translate(1.5 -1) rotate(5.5)" style="fill:#f2f2f2"/><path d="M11,15.1c-.4,0-.6-.3-.6-.7l-.2,1.7a.7.7,0,0,0,.6.7c.4,0,.7-.2.7-.6l.2-1.6C11.6,14.9,11.3,15.2,11,15.1Z" style="fill:#fff"/><rect x="11" y="13.2" width="0.3" height="0.33" rx="0.1" transform="translate(-5.9 10.1) rotate(-39.5)" style="fill:#360940"/><path d="M11.2,12.5a.6.6,0,0,0-.6.5c0,.2,0,.4.2.5l.4-.3.3.4a.5.5,0,0,0,.3-.4C11.8,12.8,11.6,12.5,11.2,12.5Z" style="fill:#fff"/><rect x="10.8" y="11.7" width="0.8" height="1.39" rx="0.4" transform="translate(1.2 -1) rotate(5.5)" style="fill:#ff9d6c"/><ellipse cx="10.2" cy="10.8" rx="0.4" ry="0.5" transform="translate(-1.5 19.9) rotate(-84.5)" style="fill:#42210b"/><rect x="10" y="9.3" width="2.2" height="3.19" rx="1" transform="translate(1.1 -1) rotate(5.5)" style="fill:#feb692"/><path d="M12,10.4V9.7a.9.9,0,0,0-.8-.4h0a1.1,1.1,0,0,0-1.2,1V11a1.2,1.2,0,0,0,.8.5h0A1.2,1.2,0,0,0,12,10.4Z" style="fill:#ff9d6c"/><ellipse cx="10.8" cy="9.7" rx="1" ry="1.3" transform="translate(0 19.5) rotate(-84.5)" style="fill:#42210b"/><ellipse cx="12.1" cy="10.3" rx="0.7" ry="0.8" transform="translate(0.6 21.3) rotate(-84.5)" style="fill:#42210b"/><ellipse cx="12.2" cy="11.1" rx="0.4" ry="0.5" transform="translate(-0.1 22.2) rotate(-84.5)" style="fill:#42210b"/><circle cx="12.2" cy="11.6" r="0.4" style="fill:#feb692"/><path d="M12,11.7l.2-.2h.2l-.2-.2c-.1-.1-.3,0-.3.2Z" style="fill:#ff9d6c"/><path d="M10.5,10.4c-.7,0-1.2-.5-1.1-1s0-.3.1-.4a.9.9,0,0,0-.3.6c-.1.5.4,1,1.1,1.1a1.6,1.6,0,0,0,1.3-.5A1.3,1.3,0,0,1,10.5,10.4Z" style="fill:#603813"/><path d="M11.1,13.4l-.5,2.3h.1v.4h.1l.3-.3h0V13.4Z" style="fill:#360940"/><path d="M11.5,23.8h.2a.5.5,0,0,1,.5.5v.1a0,0,0,0,1,0,0H11a0,0,0,0,1,0,0v-.1A.5.5,0,0,1,11.5,23.8Z" style="fill:#513162"/><path d="M9.3,23.8h.8a.5.5,0,0,1,.5.5v.1a0,0,0,0,1,0,0H8.8a0,0,0,0,1,0,0v-.1A.5.5,0,0,1,9.3,23.8Z" style="fill:#513162"/><path d="M8.9,24.3h1.5a.2.2,0,0,1,.2.2v0a0,0,0,0,1,0,0H8.8a0,0,0,0,1,0,0v0A.2.2,0,0,1,8.9,24.3Z" style="fill:#e6e6e6"/><path d="M11.1,24.3h1a.2.2,0,0,1,.2.2v0a0,0,0,0,1,0,0H11a0,0,0,0,1,0,0v0A.2.2,0,0,1,11.1,24.3Z" style="fill:#e6e6e6"/><path d="M9.6,24.1c.2,0,.3-.1.3-.2H9.3C9.3,24,9.5,24.1,9.6,24.1Z" style="fill:#63407a"/><path d="M11.6,24.1c.2,0,.3-.1.3-.2h-.6C11.3,24,11.5,24.1,11.6,24.1Z" style="fill:#63407a"/><ellipse cx="15.2" cy="11" rx="0.7" ry="0.6" transform="translate(-2.4 17.6) rotate(-56.6)" style="fill:#42210b"/><circle cx="17.2" cy="11.8" r="1" style="fill:#42210b"/><circle cx="16.8" cy="10.7" r="0.7" style="fill:#fff"/><path d="M19,23.5h-.2L18,18.1a2,2,0,0,0-2-1.8h0a2,2,0,0,0-2,1.8l-.8,5.4h-.1a.5.5,0,0,0-.5.5.6.6,0,0,0,.5.5H19a.6.6,0,0,0,.5-.5A.5.5,0,0,0,19,23.5Z" style="fill:#fff"/><path d="M18,24.5Z" style="fill:#f2f2f2"/><path d="M19,23.5h-.2L18,18.1a2,2,0,0,0-2-1.8h-.4a2.2,2.2,0,0,1,1.5,1.8l.8,5.4H18a.5.5,0,0,1,.5.5.5.5,0,0,1-.5.5h1a.6.6,0,0,0,.5-.5A.5.5,0,0,0,19,23.5Z" style="fill:#f2f2f2"/><rect x="14.1" y="13.4" width="1" height="2.5" rx="0.4" transform="translate(8.1 -5) rotate(26.6)" style="fill:#ff9d6c"/><path d="M14.7,15.7h0a.5.5,0,0,1-.6.1L12.8,15c-.1-.1-.2-.3-.1-.4h0a.4.4,0,0,1,.5-.2l1.3.7A.5.5,0,0,1,14.7,15.7Z" style="fill:#feb692"/><circle cx="12.8" cy="14.5" r="0.4" style="fill:#feb692"/><path d="M12.3,14.6v-.3H12c-.1,0-.1,0,0-.1l.3-.3H13v.2h.4v.6Z" style="fill:#feb692"/><path d="M12.6,14.6l.3-.4-.3.3v.1Z" style="fill:#ff9d6c"/><rect x="14.4" y="13" width="3.4" height="1.93" rx="0.8" style="fill:#f2f2f2"/><path d="M16.9,16.7H15.1l-.5-2.6a1.3,1.3,0,0,1,1.2-1.3h.4a1.2,1.2,0,0,1,1.2,1.3Z" style="fill:#fff"/><path d="M16.2,12.8h-.5a1.2,1.2,0,0,1,1,1.3l-.4,2.6h.6l.5-2.6A1.2,1.2,0,0,0,16.2,12.8Z" style="fill:#f2f2f2"/><path d="M16.7,13.9H15.2l-.6.2.2,1.2h1.9a.5.5,0,0,0,.5-.3l.2-.8A.8.8,0,0,0,16.7,13.9Z" style="fill:#f2f2f2"/><rect x="14.4" y="13.6" width="3" height="1.5" rx="0.7" style="fill:#fff"/><rect x="17.3" y="13.4" width="1" height="2.5" rx="0.4" transform="matrix(0.87, -0.49, 0.49, 0.87, -4.93, 10.69)" style="fill:#ff9d6c"/><path d="M18.6,15.2h0c.1.2,0,.4-.2.6l-1.3.5c-.2.1-.4.1-.5-.1h0a.4.4,0,0,1,.1-.5L18,15A.5.5,0,0,1,18.6,15.2Z" style="fill:#feb692"/><ellipse cx="17" cy="16.3" rx="0.5" ry="0.7" transform="translate(-4.1 5.7) rotate(-17.1)" style="fill:#feb692"/><path d="M18.1,22.7a.5.5,0,0,1-.5-.3.6.6,0,0,1-1,0,.9.9,0,0,1-.6.3.5.5,0,0,1-.5-.3.5.5,0,0,1-.5.3.9.9,0,0,1-.6-.3.5.5,0,0,1-.5.3.6.6,0,0,1-.6-.6h-.1a.7.7,0,0,0,.7.8.5.5,0,0,0,.5-.3.9.9,0,0,0,.6.3.5.5,0,0,0,.5-.3.5.5,0,0,0,.5.3.9.9,0,0,0,.6-.3.6.6,0,0,0,1,0,.5.5,0,0,0,.5.3.7.7,0,0,0,.7-.8h0A.7.7,0,0,1,18.1,22.7Z" style="fill:#e2b0ff"/><path d="M17.8,19.9l-.4-.2-.5.2a.5.5,0,0,1-.4-.2l-.5.2-.4-.2-.5.2-.4-.2-.5.2a.5.5,0,0,1-.5-.5.1.1,0,0,0-.1.1.7.7,0,0,0,.6.7.5.5,0,0,0,.5-.3c.1.2.2.3.4.3a.5.5,0,0,0,.5-.3c.1.2.2.3.4.3a.5.5,0,0,0,.5-.3c.1.2.2.3.4.3a.5.5,0,0,0,.5-.3.5.5,0,0,0,.4.3c.4,0,.6-.3.6-.7h0A.6.6,0,0,1,17.8,19.9Z" style="fill:#e2b0ff"/><path d="M15.5,13.5a1.4,1.4,0,0,0,.1,1.1,1.4,1.4,0,0,1,.7-1Z" style="fill:#feb692"/><ellipse cx="15.9" cy="13.3" rx="0.9" ry="0.4" style="fill:#feb692"/><rect x="15.5" y="11.8" width="0.9" height="1.62" rx="0.4" style="fill:#feb692"/><path d="M16,11.8h0a.5.5,0,0,0-.5.4v.7h.9v-.7A.4.4,0,0,0,16,11.8Z" style="fill:#ff9d6c"/><circle cx="15.4" cy="13" r="0.1" style="fill:#fff"/><circle cx="15.3" cy="13.2" r="0.1" style="fill:#fff"/><circle cx="15.4" cy="13.5" r="0.1" style="fill:#fff"/><circle cx="15.7" cy="13.7" r="0.1" style="fill:#fff"/><circle cx="16" cy="13.6" r="0.1" style="fill:#fff"/><circle cx="16.3" cy="13.5" r="0.1" style="fill:#fff"/><circle cx="16.5" cy="13.3" r="0.1" style="fill:#fff"/><circle cx="16.6" cy="13.1" r="0.1" style="fill:#fff"/><rect x="14.9" y="10" width="2.1" height="2.78" rx="0.9" style="fill:#feb692"/><path d="M16.7,10.9v-.5a.8.8,0,0,0-.8-.4h0a1.1,1.1,0,0,0-1,1.1v.5a.9.9,0,0,0,.8.4h0A1,1,0,0,0,16.7,10.9Z" style="fill:#ff9d6c"/><ellipse cx="15.6" cy="10.5" rx="1.2" ry="0.8" transform="translate(-2.4 5.2) rotate(-17.4)" style="fill:#42210b"/><ellipse cx="16.8" cy="10.9" rx="0.7" ry="0.6" transform="translate(-1.6 18.9) rotate(-56.6)" style="fill:#42210b"/><circle cx="16.9" cy="11.6" r="0.3" style="fill:#feb692"/><ellipse cx="16.9" cy="9.8" rx="0.1" ry="0.3" style="fill:#32ccbc"/><ellipse cx="17.3" cy="10" rx="0.3" ry="0.1" transform="translate(-2.5 12.8) rotate(-38.2)" style="fill:#32ccbc"/><path d="M16.6,9.9h-.1c0,.4-.4.8-1,1H14.3a1.2,1.2,0,0,0,1.3.2C16.3,10.9,16.7,10.4,16.6,9.9Z" style="fill:#603813"/></g><g id="Effect"><path d="M7.1,9.4l-.5-.2a.4.4,0,0,1-.2-.4l.4-.2h0c.1-.1.3-.2.4-.1s.2.2.2.4Z" style="fill:#f97794"/><path d="M5,13.2H4.7v-.2H5v.5Z" style="fill:#f97794"/><path d="M4.7,11.4l-1.2-.5a.8.8,0,0,1-.3-.9A.6.6,0,0,1,4,9.7h.1a.6.6,0,0,1,.8-.3.7.7,0,0,1,.4.8Z" style="fill:#f97794"/><path d="M24.9,13v-.6a.3.3,0,0,1,.6,0h0a.3.3,0,0,1,.3.3.3.3,0,0,1-.3.3Z" style="fill:#f97794"/><path d="M24,11.4v-.3l.2-.2c.1,0,.1.1.1.2h.2a.3.3,0,0,1-.1.2Z" style="fill:#f97794"/><path d="M24.9,10.5V9.2a.6.6,0,0,1,.6-.6c.4,0,.7.2.7.6h0c.4,0,.6.3.7.7a.7.7,0,0,1-.7.6Z" style="fill:#f97794"/><path d="M19.5,20.6h0Z" style="fill:#fff"/><path d="M13.1,18.7H13c0-.1-.1-.1-.1,0h-.1c-.1,0-.1.1,0,.1H13C13,18.7,13,18.7,13.1,18.7Z" style="fill:#fff"/><path d="M18.9,18.3h0Z" style="fill:#fff"/><path d="M9.5,11.8h0Z" style="fill:#fff"/><path d="M14.7,12.4h0a.1.1,0,0,1-.1-.1h.1Z" style="fill:#fff"/><path d="M17.7,12.2h0Z" style="fill:#fff"/><path d="M20,19.1h.1c.1-.1.1-.1,0-.1H20Z" style="fill:#fff"/><path d="M9.2,11h.1c.1-.1.1-.1,0-.1H9.2a.1.1,0,0,1-.1-.1H9c0,.1.1.1.1,0h.1Z" style="fill:#fff"/><path d="M18.5,10.8h.1c.1,0,.1-.1,0-.1h-.4V11h.1v-.2Z" style="fill:#fff"/><path d="M14.3,11.7h0Z" style="fill:#fff"/><path d="M13.5,17.7h-.1c0-.1-.1-.1-.1,0h0c0,.1,0,.1-.1.1h-.1c-.1,0-.1,0,0,.1h.1c.1,0,.1,0,.1.1h0c0,.1.1.1.1,0h.1Z" style="fill:#fff"/></g></g></svg>