<svg id="Layer_1" data-name="Layer 1" xmlns="http://www.w3.org/2000/svg" viewBox="0 0 721.9 259.9"><title>madebylove</title><rect x="3" y="101.2" width="715.9" height="155.66" style="fill:none;stroke:#222;stroke-miterlimit:10;stroke-width:6px"/><path d="M225.9,529.8v-1.1L257.3,472H240.1a7.8,7.8,0,0,0-4.8,1.4,13.1,13.1,0,0,0-3.3,3.9l-4.2,7.4h-.9l.7-14.5h44.1v1.1L240.4,528h19.7a7.5,7.5,0,0,0,4.7-1.4,12,12,0,0,0,3.2-4l3.9-7.3h.9l-.6,14.5Z" transform="translate(-153.1 -320.9)" style="fill:#222"/><path d="M296.4,529.8v-.9l2.1-.8a4.1,4.1,0,0,0,2.1-1.7,5.5,5.5,0,0,0,.6-2.8V476.4a7,7,0,0,0-.5-2.8,4,4,0,0,0-2.2-1.7l-2.1-.8v-.9h43.2l.6,13.9h-.9l-3.9-8.5a14.6,14.6,0,0,0-1.7-2.6,3.3,3.3,0,0,0-2.7-1H314.7v26.1h9.7a3.7,3.7,0,0,0,2.7-.9,8.4,8.4,0,0,0,1.7-2.6l1.8-3.6h.9v16.2h-.9l-1.8-3.8a10.8,10.8,0,0,0-1.7-2.5,3.3,3.3,0,0,0-2.7-1h-9.7V528h18.2a3.6,3.6,0,0,0,2.8-1,7.3,7.3,0,0,0,1.7-2.6l3.7-8.5h.9l-.6,13.9Z" transform="translate(-153.1 -320.9)" style="fill:#222"/><path d="M377.5,529.8v-.9l3.7-.9c2.4-.6,3.7-2.1,3.7-4.5V472h-7.7q-3.3,0-4.8,1.8a26.7,26.7,0,0,0-3.1,4.8l-3.2,6.3h-.9l.4-14.7h52.1l.4,14.7h-.9l-3.3-6.3a27.3,27.3,0,0,0-2.9-4.8q-1.5-1.8-4.8-1.8h-7.7v51.5c0,2.4,1.2,3.9,3.7,4.5l3.7.9v.9Z" transform="translate(-153.1 -320.9)" style="fill:#222"/><path d="M440.8,529.8v-.9l1.9-.7a3.6,3.6,0,0,0,2.3-1.7,6.1,6.1,0,0,0,.6-2.8V476.4a6.2,6.2,0,0,0-.6-2.9,4,4,0,0,0-2.3-1.7l-1.9-.7v-.9h23v.9l-1.6.6a4.8,4.8,0,0,0-2.3,1.7,5.7,5.7,0,0,0-.6,2.9v21.9h21.5V476.3a7.2,7.2,0,0,0-.5-2.9,4.6,4.6,0,0,0-2.4-1.7l-1.7-.6v-.9h23.1v.9l-1.8.7a4.6,4.6,0,0,0-2.4,1.7,6.2,6.2,0,0,0-.6,2.9v47.3a6.1,6.1,0,0,0,.6,2.8,4.2,4.2,0,0,0,2.4,1.7l1.8.7v.9H476.2v-.9l1.7-.5a4.7,4.7,0,0,0,2.4-1.8,7.2,7.2,0,0,0,.5-2.9V500H459.3v23.7a4.8,4.8,0,0,0,2.9,4.7l1.6.5v.9Z" transform="translate(-153.1 -320.9)" style="fill:#222"/><path d="M521.7,529.8v-.9l2.2-.8a7.5,7.5,0,0,0,2.8-1.8,6.7,6.7,0,0,0,1.6-2.9L546.9,470h7.7l18.3,53.7a9.8,9.8,0,0,0,1.7,3.1,5.8,5.8,0,0,0,2.8,1.7l1.1.4v.9h-23v-.9l1.4-.5a3.4,3.4,0,0,0,2.3-2,5.6,5.6,0,0,0-.2-3.1l-4.2-13H534.7L530.4,523a7.9,7.9,0,0,0-.4,3.2c.2.8.9,1.4,2.1,1.9l2,.8v.9Zm13.7-21.3h18.9l-9.2-28.1Z" transform="translate(-153.1 -320.9)" style="fill:#222"/><path d="M602.5,529.8v-.9l2.9-.9a3.7,3.7,0,0,0,2.4-1.8,5.9,5.9,0,0,0,.7-3.1V479.7a35,35,0,0,0-1.6-3.3,8.3,8.3,0,0,0-1.3-1.8c-.5-.5-1.1-1.2-2-2l-1.5-1.5v-.9h16l30,40.9v-34a8.8,8.8,0,0,0-.6-3.3,3.4,3.4,0,0,0-2.4-1.9l-3-.8v-.9H655v.9l-2.4.8a2.8,2.8,0,0,0-2,1.9,14.7,14.7,0,0,0-.4,3.2v53.1h-5l-34.5-47.4v40.4a9.6,9.6,0,0,0,.5,3.1,3.6,3.6,0,0,0,2.3,1.8l2.7.9v.9Z" transform="translate(-153.1 -320.9)" style="fill:#222"/><path d="M699.4,531.4a45.1,45.1,0,0,1-10.2-1.2,32.1,32.1,0,0,1-8.5-3.2l.4-12.3h.9l2.8,5.9a44.5,44.5,0,0,0,2.7,4.5,9.4,9.4,0,0,0,4,3,13.2,13.2,0,0,0,3.5,1.2,20.5,20.5,0,0,0,3.7.3q5.5,0,8.7-3a9.6,9.6,0,0,0,3.2-7.6q0-4.5-2.1-6.9a22.9,22.9,0,0,0-7-4.9l-3.7-1.6a37.9,37.9,0,0,1-12.1-7.9c-2.9-3-4.4-6.9-4.4-11.9a15.8,15.8,0,0,1,2.7-9.2,17,17,0,0,1,7.7-5.9,29.1,29.1,0,0,1,11.5-2.1,33.4,33.4,0,0,1,9.1,1.2,26,26,0,0,1,7.5,3.5l-.6,10.8h-.9l-3.7-6.8a11.6,11.6,0,0,0-3.1-4.4A9.2,9.2,0,0,0,708,471l-2.1-.5h-2.6a11.9,11.9,0,0,0-7.7,2.6,9,9,0,0,0-3.2,7.2,11,11,0,0,0,2.4,7.4,21.6,21.6,0,0,0,7.2,4.9l4.1,1.8c5.8,2.5,10,5.2,12.5,8.1a16.2,16.2,0,0,1,3.8,11.1,15.9,15.9,0,0,1-6,12.9C712.4,529.8,706.7,531.4,699.4,531.4Z" transform="translate(-153.1 -320.9)" style="fill:#222"/><path d="M745.4,529.8v-.9l2.3-.8a8.5,8.5,0,0,0,2.8-1.8,7.9,7.9,0,0,0,1.6-2.9L770.7,470h7.7l18.3,53.7a9.8,9.8,0,0,0,1.6,3.1,5.8,5.8,0,0,0,2.8,1.7l1.1.4v.9H779.3v-.9l1.3-.5a3.2,3.2,0,0,0,2.3-2,5.5,5.5,0,0,0-.1-3.1l-4.3-13h-20L754.2,523a5.5,5.5,0,0,0-.4,3.2c.1.8.8,1.4,2.1,1.9l2,.8v.9Zm13.7-21.3H778l-9.1-28.1Z" transform="translate(-153.1 -320.9)" style="fill:#222"/><text transform="translate(3 59)" style="font-size:69.45532989501953px;fill:#222;font-family:Montserrat-SemiBold, Montserrat;font-weight:600"><tspan xml:space="preserve">MADE  </tspan><tspan x="260.6" y="0" style="letter-spacing:-0.015002335876525994em">W</tspan><tspan x="339" y="0" xml:space="preserve" style="letter-spacing:0.00000703014802086504em">ITH        </tspan><tspan x="612.6" y="0" style="letter-spacing:-0.014988275580484265em">B</tspan><tspan x="664.4" y="0">Y</tspan></text><path d="M693.5,331.8l-2.4,2.6-2.4-2.6a16.3,16.3,0,0,0-24,0,18.9,18.9,0,0,0,0,25.5l2.4,2.5,24,25.5L715,359.8l2.4-2.5a18.9,18.9,0,0,0,0-25.5A16.2,16.2,0,0,0,693.5,331.8Z" transform="translate(-153.1 -320.9)" style="fill:#222"/></svg>